<svg xmlns="http://www.w3.org/2000/svg" width="600" height="350" viewBox="0 0 600 350"><defs><linearGradient id="b" x2="600" y2="350"><stop stop-color="#eee8f8"/><stop offset=".7" stop-color="#e3efea"/><stop offset="1" stop-color="#f3e8cf"/></linearGradient><filter id="s"><feDropShadow dy="7" stdDeviation="6" flood-color="#365247" flood-opacity=".15"/></filter></defs><path fill="url(#b)" d="M0 0h600v350H0z"/><g fill="#e8bd69"><path d="m300 45 13 27 30 4-22 21 5 30-26-14-26 14 5-30-22-21 30-4Z"/><path d="m100 58 5 13 14 2-10 9 3 14-12-7-12 7 3-14-10-9 14-2Z"/><path d="m505 83 5 12 13 2-9 9 2 13-11-6-12 6 3-13-10-9 13-2Z"/></g><g filter="url(#s)"><g transform="translate(95 205)"><ellipse rx="72" ry="35" fill="#fffdf7" stroke="#a18bbe" stroke-width="3"/><circle cx="-34" cy="-28" r="29" fill="#fffdf7"/><circle cx="5" cy="-37" r="38" fill="#fffdf7"/><circle cx="42" cy="-24" r="28" fill="#fffdf7"/></g><g transform="translate(300 225)"><ellipse rx="77" ry="37" fill="#fff6d5" stroke="#d98565" stroke-width="3"/><circle cx="-38" cy="-29" r="30" fill="#fff6d5"/><circle cx="4" cy="-40" r="40" fill="#fff6d5"/><circle cx="44" cy="-26" r="29" fill="#fff6d5"/></g><g transform="translate(505 202)"><ellipse rx="70" ry="34" fill="#fffdf7" stroke="#789875" stroke-width="3"/><circle cx="-34" cy="-26" r="28" fill="#fffdf7"/><circle cx="4" cy="-36" r="37" fill="#fffdf7"/><circle cx="40" cy="-24" r="27" fill="#fffdf7"/></g></g><path d="M300 120v55" stroke="#d7af52" stroke-width="3" stroke-dasharray="5 8"/><path d="M149 102c-8 23-21 32-21 46a21 21 0 0 0 42 0c0-14-13-23-21-46Z" fill="#78a9bd" opacity=".8"/><text x="300" y="328" text-anchor="middle" fill="#68796e" font-family="sans-serif" font-size="10" letter-spacing="4">A POCKET FULL OF STARLIGHT</text></svg>